<svg width="20" height="20" viewBox="0 0 20 20" fill="none" xmlns="http://www.w3.org/2000/svg">
    <path fill-rule="evenodd" clip-rule="evenodd" d="M10.9924 10.899C10.9924 11.4015 10.4511 11.8851 10.0001 11.8851C9.54912 11.8851 9.00781 11.4015 9.00781 10.899V4.9887C9.00781 4.48712 9.45496 4.00297 10.0001 4.00513C10.5453 4.0073 10.9924 4.48712 10.9924 4.9887V10.899ZM9.99951 15.8063C9.4514 15.8063 9.00781 15.3644 9.00781 14.8226C9.00781 14.2796 9.4514 13.8389 9.99951 13.8389C10.5476 13.8389 10.9924 14.2796 10.9924 14.8226C10.9924 15.3644 10.5476 15.8063 9.99951 15.8063ZM0 9.90499C0 15.328 4.485 19.7399 9.999 19.7399C15.514 19.7399 20 15.328 20 9.90499C20 4.48201 15.514 0.0700684 9.999 0.0700684C4.486 0.0700684 0 4.48201 0 9.90499Z" fill="#1365AA"/>
</svg>
