<svg width="34" height="30" viewBox="0 0 34 30" fill="none" xmlns="http://www.w3.org/2000/svg">
<path d="M26 15.5688C26 22.7058 20.3779 28.4443 13.5 28.4443C6.62212 28.4443 1 22.7058 1 15.5688C1 8.43187 6.62212 2.69336 13.5 2.69336C20.3779 2.69336 26 8.43187 26 15.5688Z" stroke="#56BB85" stroke-width="2"/>
<path d="M12.6628 21.112L13.7119 22.1442L14.7757 21.1267L30 6.56461L27.9022 4.44141L12.6779 19.0035L14.7909 19.0181L9.12809 13.4465L7 15.5403L12.6628 21.112Z" fill="white" stroke="white" stroke-width="5"/>
<path d="M13.1704 20.2433L14.1283 21.1608L15.0996 20.2563L29 7.31233L27.0846 5.42505L13.1842 18.369L15.1134 18.3821L9.94304 13.4295L8 15.2907L13.1704 20.2433Z" fill="#56BB85"/>
</svg>
