<svg viewBox="0 0 1520 847" fill="none" xmlns="http://www.w3.org/2000/svg">
<path d="M1494.7 231.976L1.00013 786.847" stroke="#72DDAF" stroke-width="5"/>
<path d="M1519 254.153L25.3014 809.024" stroke="#72DDAF" stroke-width="5"/>
<path d="M452.86 634.061C452.86 641.138 458.585 646.866 465.636 646.866C472.688 646.866 478.412 641.138 478.412 634.061C478.412 626.984 472.688 621.255 465.636 621.255C458.585 621.255 452.86 626.984 452.86 634.061Z" fill="#51BB8F" stroke="#72DDAF" stroke-width="5"/>
<path d="M427.862 634.061C427.862 641.138 433.587 646.866 440.638 646.866C447.69 646.866 453.415 641.138 453.415 634.061C453.415 626.984 447.69 621.255 440.638 621.255C433.587 621.255 427.862 626.984 427.862 634.061Z" fill="#51BB8F" stroke="#72DDAF" stroke-width="5"/>
<rect x="-2.5" y="2.5" width="92.2114" height="111.879" rx="3.5" transform="matrix(-1 0 0 1 495.577 647.149)" fill="#51BB8F" stroke="#72DDAF" stroke-width="5"/>
<rect width="11.1099" height="47.308" rx="2" transform="matrix(-1 0 0 1 470.025 663.585)" fill="#72DDAF"/>
<rect width="11.1099" height="47.308" rx="2" transform="matrix(-1 0 0 1 445.027 663.585)" fill="#72DDAF"/>
<rect x="1258.97" y="680.754" width="103.532" height="165.926" rx="2.5" fill="#4EBA94" stroke="#72DDAF" stroke-width="5"/>
<rect x="1033.76" y="767.574" width="103.532" height="165.926" rx="2.5" stroke="#72DDAF" stroke-width="5"/>
<rect x="966.93" y="680.754" width="103.532" height="165.926" rx="2.5" fill="#4FBA92" stroke="#72DDAF" stroke-width="5"/>
<rect x="1101.6" y="555.951" width="163.225" height="290.73" rx="2.5" fill="#4EBA94" stroke="#72DDAF" stroke-width="5"/>
<rect x="1204.92" y="591.434" width="24.4198" height="24.418" rx="2" fill="#72DDAF"/>
<rect x="1139.8" y="642.984" width="24.4198" height="24.418" rx="2" fill="#72DDAF"/>
<rect x="1204.92" y="710.812" width="24.4198" height="24.418" rx="2" fill="#72DDAF"/>
<path d="M797.918 800.344L968.846 801.701" stroke="#72DDAF" stroke-width="5"/>
<path d="M572.5 724C572.5 722.619 573.619 721.5 575 721.5H635.5V844C635.5 845.381 634.381 846.5 633 846.5H575C573.619 846.5 572.5 845.381 572.5 844V724Z" stroke="#72DDAF" stroke-width="5"/>
<path d="M615.913 657.549C615.913 656.168 617.032 655.049 618.413 655.049H703.379C704.76 655.049 705.879 656.168 705.879 657.549V715.377C705.879 716.758 704.76 717.877 703.379 717.877H615.913V657.549Z" stroke="#72DDAF" stroke-width="5"/>
<path d="M706.452 680.754H793.918C795.299 680.754 796.418 681.873 796.418 683.254V844.18C796.418 845.561 795.299 846.68 793.918 846.68H708.952C707.571 846.68 706.452 845.561 706.452 844.18V680.754Z" stroke="#72DDAF" stroke-width="5"/>
<rect x="624" y="711" width="60" height="94" fill="#51BB90"/>
<rect x="623" y="702" width="157" height="103" fill="#51BB90"/>
<rect x="618" y="658" width="59" height="147" fill="#51BB90"/>
<rect x="670" y="754" width="118" height="95" fill="#51BB90"/>
<rect x="614" y="787" width="37" height="70" fill="#51BB90"/>
<rect x="684" y="683" width="49" height="71" fill="#51BB90"/>
<rect x="678.533" y="735.229" width="27.1331" height="24.418" rx="2" fill="#72DDAF"/>
<rect x="633" y="681" width="27.1331" height="24.418" rx="2" fill="#72DDAF"/>
</svg>
