<svg width="15" height="17" viewBox="0 0 15 17" fill="none" xmlns="http://www.w3.org/2000/svg">
    <path d="M8.71815 8.5015L0.601797 16.722C0.22172 16.4488 -0.00393826 15.9944 5.20501e-05 15.5102V1.49279C-0.00393826 1.0086 0.22172 0.554155 0.601797 0.280945L8.71815 8.5015Z"
        fill="currentColor" />
    <path d="M11.5584 5.6301L8.7184 8.5015L0.602051 0.280952C0.632632 0.256023 0.664485 0.23283 0.69744 0.211483C1.1264 -0.0619806 1.6622 -0.070809 2.0991 0.188327L11.5584 5.6301Z"
        fill="currentColor" />
    <path d="M15 8.5015C15.0053 9.0481 14.7229 9.55299 14.2662 9.81371L11.5583 11.3729L8.71826 8.5015L11.5583 5.6301L14.2662 7.18929C14.7229 7.45002 15.0053 7.9549 15 8.5015Z"
        fill="currentColor" />
    <path d="M11.5584 11.3729L2.0991 16.8147C1.66124 17.0698 1.12746 17.061 0.69744 16.7915C0.664485 16.7702 0.632632 16.747 0.602051 16.722L8.71844 8.5015L11.5584 11.3729Z"
        fill="currentColor" />
</svg>