<svg width="47" height="40" viewBox="0 0 47 40" fill="none" xmlns="http://www.w3.org/2000/svg">
    <path d="M39.4463 16.0588L39.9799 15.5181L39.4662 14.9976L38.9334 15.4979L39.4463 16.0588ZM46.2344 25.4632L45.4823 25.4017L45.4821 25.4044L46.2344 25.4632ZM45.2595 27.7527L45.7316 28.3493L45.7317 28.3491L45.2595 27.7527ZM26.4178 28.2941L25.905 27.7332L24.4934 29.0588H26.4178V28.2941ZM29.3035 2.65353L28.808 2.07682L28.5147 2.3356L28.5525 2.72782L29.3035 2.65353ZM29.9992 2.106L29.5735 1.47457L29.5691 1.47769L29.9992 2.106ZM30.7507 1.64259L30.3965 0.967414L30.3963 0.967521L30.7507 1.64259ZM31.5566 1.26941L31.8262 1.98365L31.8296 1.98234L31.5566 1.26941ZM32.4063 0.992588L32.225 0.25025L32.2197 0.251634L32.4063 0.992588ZM35.7672 0.925294L35.9237 0.177221L35.9194 0.176326L35.7672 0.925294ZM37.2039 1.39024L36.9033 2.09167L36.9044 2.09215L37.2039 1.39024ZM38.5032 2.12282L38.0725 2.75072L38.0736 2.75147L38.5032 2.12282ZM40.5708 4.27012L41.2014 3.85022L41.2007 3.84915L40.5708 4.27012ZM41.277 5.62212L41.9748 5.33107L41.974 5.32916L41.277 5.62212ZM41.277 12.5748L42.0035 12.7813L42.0041 12.7794L41.277 12.5748ZM38.5032 18.642L37.8914 18.1944L37.8912 18.1947L38.5032 18.642ZM37.2039 20.1546L37.7161 20.7161L37.717 20.7153L37.2039 20.1546ZM33.8475 21.5173L33.9388 20.7582L33.9298 20.7572L33.8475 21.5173ZM33.4763 21.4515L33.3039 22.196L33.306 22.1965L33.4763 21.4515ZM33.1111 21.3445L32.8617 22.0663L32.8697 22.069L33.1111 21.3445ZM32.7519 21.1961L33.0719 20.5036L33.0648 20.5002L32.7519 21.1961ZM32.3972 21.0126L32.7716 20.3486L32.768 20.3465L32.3972 21.0126ZM32.0501 20.7954L31.624 21.4265L31.6297 21.4304L32.0501 20.7954ZM30.953 19.7784L30.202 19.8527L30.2294 20.1376L30.4347 20.3342L30.953 19.7784ZM7.55367 16.0588L8.06656 15.4979L7.53375 14.9976L7.02011 15.5181L7.55367 16.0588ZM0.765504 25.4632L0.0133454 25.5243L0.0133605 25.5244L0.765504 25.4632ZM1.74192 27.7527L2.21505 27.157L2.21368 27.1559L1.74192 27.7527ZM20.5821 28.2941V29.0588H22.5065L21.095 27.7332L20.5821 28.2941ZM38.9127 16.5995C39.3081 17.0003 39.9743 17.582 40.6791 18.2264C41.4031 18.8882 42.2114 19.6542 42.9601 20.4791C43.7113 21.3069 44.3831 22.1733 44.8471 23.0316C45.3135 23.8943 45.5388 24.6911 45.4823 25.4017L46.9865 25.5247C47.0756 24.4045 46.7139 23.3017 46.1706 22.2968C45.625 21.2874 44.8644 20.3183 44.0709 19.4439C43.2748 18.5666 42.4258 17.7635 41.69 17.0908C40.9351 16.4006 40.339 15.8821 39.9799 15.5181L38.9127 16.5995ZM45.4821 25.4044C45.4437 25.9081 45.3518 26.6971 44.7872 27.1563L45.7317 28.3491C46.8634 27.4288 46.9526 25.9696 46.9867 25.522L45.4821 25.4044ZM44.7874 27.1562C44.508 27.3833 44.1182 27.5294 43.5874 27.5294V29.0588C44.4026 29.0588 45.1417 28.8287 45.7316 28.3493L44.7874 27.1562ZM43.5874 27.5294H26.4178V29.0588H43.5874V27.5294ZM38.9334 15.4979L25.905 27.7332L26.9307 28.855L39.9592 16.6197L38.9334 15.4979ZM29.799 3.23027C29.9987 3.05405 30.209 2.88916 30.4293 2.73431L29.5691 1.47769C29.3063 1.66237 29.052 1.86148 28.808 2.07682L29.799 3.23027ZM30.4249 2.7374C30.6479 2.58297 30.8747 2.442 31.1053 2.31766L30.3963 0.967521C30.1106 1.12153 29.8364 1.29256 29.5735 1.4746L30.4249 2.7374ZM31.105 2.31776C31.3408 2.19069 31.5812 2.07863 31.8262 1.98365L31.287 0.555176C30.9797 0.67431 30.6828 0.813074 30.3965 0.967414L31.105 2.31776ZM31.8296 1.98234C32.0792 1.88419 32.3341 1.80047 32.5929 1.73354L32.2197 0.251634C31.8989 0.334589 31.5864 0.437457 31.2837 0.556484L31.8296 1.98234ZM32.5875 1.73491C32.8553 1.66777 33.1215 1.61569 33.3913 1.58168L33.2051 0.0639677C32.8682 0.106424 32.5428 0.170583 32.225 0.250265L32.5875 1.73491ZM33.3913 1.58168C33.6642 1.54728 33.941 1.52941 34.2233 1.52941V0C33.8778 0 33.5388 0.0218936 33.2051 0.0639677L33.3913 1.58168ZM34.2233 1.52941C34.6984 1.52941 35.165 1.58032 35.6149 1.67426L35.9194 0.176326C35.3733 0.0622699 34.8046 0 34.2233 0V1.52941ZM35.6106 1.67335C36.0591 1.76977 36.4908 1.91014 36.9033 2.09167L37.5044 0.688801C36.9994 0.466562 36.4712 0.294932 35.9237 0.177236L35.6106 1.67335ZM36.9044 2.09215C37.3155 2.27229 37.7077 2.49371 38.0725 2.75072L38.9339 1.49493C38.4868 1.17993 38.0067 0.908883 37.5033 0.688319L36.9044 2.09215ZM38.0736 2.75147C38.4414 3.00961 38.7845 3.30361 39.0962 3.62769L40.177 2.56031C39.7975 2.16558 39.38 1.80804 38.9329 1.49417L38.0736 2.75147ZM39.0962 3.62769C39.4086 3.95261 39.6925 4.3095 39.9408 4.69109L41.2007 3.84915C40.8997 3.3865 40.5557 2.95418 40.177 2.56031L39.0962 3.62769ZM39.9401 4.69002C40.1887 5.07344 40.4035 5.48363 40.58 5.91508L41.974 5.32916C41.7612 4.80931 41.5021 4.31409 41.2014 3.85022L39.9401 4.69002ZM40.5792 5.91317C40.7544 6.34446 40.8907 6.79525 40.982 7.2631L42.4625 6.96655C42.3515 6.39745 42.186 5.85107 41.9748 5.33107L40.5792 5.91317ZM40.982 7.2631C41.0741 7.73576 41.1246 8.22135 41.1246 8.71765H42.6338C42.6338 8.11582 42.5725 7.53082 42.4625 6.96655L40.982 7.2631ZM41.1246 8.71765C41.1246 9.21669 41.0736 9.78739 40.9768 10.4112L42.4676 10.6488C42.573 9.96955 42.6338 9.31672 42.6338 8.71765H41.1246ZM40.9768 10.4112C40.8808 11.0298 40.7365 11.6892 40.5499 12.3703L42.0041 12.7794C42.2038 12.0503 42.3614 11.3332 42.4676 10.6488L40.9768 10.4112ZM40.5505 12.3684C40.3626 13.0473 40.1337 13.7417 39.8685 14.4256L41.273 14.985C41.5571 14.2527 41.8021 13.5094 42.0035 12.7813L40.5505 12.3684ZM39.8685 14.4256C39.6034 15.1089 39.301 15.782 38.9693 16.4192L40.3039 17.133C40.6633 16.4427 40.9887 15.7179 41.273 14.985L39.8685 14.4256ZM38.9693 16.4192C38.6379 17.0555 38.2758 17.6548 37.8914 18.1944L39.115 19.0896C39.5455 18.4852 39.9441 17.8242 40.3039 17.133L38.9693 16.4192ZM37.8912 18.1947C37.509 18.7317 37.1052 19.2044 36.6908 19.5939L37.717 20.7153C38.217 20.2453 38.6855 19.6932 39.1153 19.0893L37.8912 18.1947ZM36.6917 19.5931C36.2751 19.9833 35.8578 20.2808 35.4446 20.4787L36.0897 21.8615C36.6726 21.5822 37.2151 21.1854 37.7161 20.7161L36.6917 19.5931ZM35.4446 20.4787C35.0332 20.6759 34.6252 20.7755 34.2233 20.7755V22.3049C34.8778 22.3049 35.5051 22.1415 36.0897 21.8615L35.4446 20.4787ZM34.2233 20.7755C34.1266 20.7755 34.0318 20.7697 33.9388 20.7582L33.7561 22.2763C33.9108 22.2955 34.0665 22.3049 34.2233 22.3049V20.7755ZM33.9298 20.7572C33.8419 20.7474 33.7481 20.7304 33.6466 20.7066L33.306 22.1965C33.452 22.2308 33.6057 22.2597 33.7652 22.2774L33.9298 20.7572ZM33.6486 20.707C33.5545 20.6847 33.4557 20.6552 33.3524 20.6199L32.8697 22.069C33.0078 22.1163 33.1535 22.1603 33.3039 22.196L33.6486 20.707ZM33.3603 20.6227C33.2628 20.5881 33.1673 20.5489 33.0719 20.5036L32.4318 21.8886C32.5749 21.9565 32.7178 22.0152 32.8617 22.0663L33.3603 20.6227ZM33.0648 20.5002C32.9645 20.454 32.866 20.4033 32.7716 20.3487L32.0228 21.6765C32.1608 21.7565 32.3007 21.8281 32.439 21.892L33.0648 20.5002ZM32.768 20.3465C32.668 20.2894 32.57 20.228 32.4706 20.1604L31.6297 21.4304C31.7597 21.5188 31.891 21.6012 32.0265 21.6786L32.768 20.3465ZM32.4762 20.1643C32.4921 20.1753 32.4743 20.1632 32.3981 20.0952C32.3347 20.0386 32.252 19.9626 32.1546 19.8715C31.9599 19.6896 31.7173 19.4582 31.4711 19.2225L30.4347 20.3342C30.6806 20.5696 30.9293 20.807 31.1315 20.9959C31.3076 21.1605 31.5095 21.3471 31.624 21.4265L32.4762 20.1643ZM28.5525 2.72782L30.202 19.8527L31.704 19.704L30.0545 2.57924L28.5525 2.72782ZM7.02011 15.5181C6.66086 15.8822 6.0649 16.4006 5.31008 17.0909C4.57439 17.7636 3.72556 18.5667 2.92956 19.4439C2.13608 20.3183 1.37565 21.2874 0.829952 22.2967C0.286614 23.3016 -0.0752868 24.4044 0.0133454 25.5243L1.51766 25.4021C1.46142 24.6913 1.68695 23.8944 2.15343 23.0316C2.61753 22.1733 3.28928 21.3069 4.04041 20.4791C4.78902 19.6541 5.59723 18.8882 6.32108 18.2263C7.02577 17.582 7.69183 17.0002 8.08723 16.5995L7.02011 15.5181ZM0.0133605 25.5244C0.0485613 25.9683 0.136409 27.4292 1.27016 28.3496L2.21368 27.1559C1.64814 26.6967 1.5579 25.9094 1.51765 25.4019L0.0133605 25.5244ZM1.2688 28.3484C1.85793 28.829 2.5993 29.0588 3.41254 29.0588V27.5294C2.88265 27.5294 2.49216 27.383 2.21505 27.157L1.2688 28.3484ZM3.41254 29.0588H20.5821V27.5294H3.41254V29.0588ZM7.04079 16.6197L20.0692 28.855L21.095 27.7332L8.06656 15.4979L7.04079 16.6197Z"
        fill="" />
    <path fillRule="evenodd" clipRule="evenodd" d="M28.9577 23.0222C27.3942 25.3469 25.4776 27.0033 23.3995 27.0033C21.3637 27.0033 19.4833 25.4157 17.9379 23.1675C13.1434 25.9327 9.35691 31.5655 9.48972 34.866C9.57725 37.0836 10.8102 39 12.7676 39H34.0314C35.9903 39 37.2414 37.0836 37.3108 34.866C37.4421 30.6662 33.7085 25.5121 28.9577 23.0222Z"
        fill="#fff" />
    <path className="color-stroke" fillRule="evenodd" clipRule="evenodd" d="M28.9577 23.0222C27.3942 25.3469 25.4776 27.0033 23.3995 27.0033C21.3637 27.0033 19.4833 25.4157 17.9379 23.1675C13.1434 25.9327 9.35691 31.5655 9.48972 34.866C9.57725 37.0836 10.8102 39 12.7676 39H34.0314C35.9903 39 37.2414 37.0836 37.3108 34.866C37.4421 30.6662 33.7085 25.5121 28.9577 23.0222Z"
        stroke="" />
    <path d="M17.6963 2.65347C17.4744 2.45771 17.242 2.27571 17.0021 2.10594C16.7591 1.93771 16.5086 1.78171 16.249 1.64253C15.9894 1.50182 15.7193 1.37641 15.4446 1.26935C15.1685 1.16077 14.8832 1.06747 14.5935 0.992531C14.3037 0.919119 14.0049 0.861002 13.7031 0.822766C13.3997 0.784531 13.0904 0.764648 12.7765 0.764648C12.2483 0.764648 11.7321 0.821237 11.2341 0.925237C10.7361 1.0323 10.2547 1.1883 9.7974 1.39018C9.34013 1.59053 8.90399 1.83677 8.49652 2.12277C8.09056 2.40877 7.71026 2.73453 7.36466 3.09394C7.01756 3.45335 6.70516 3.84794 6.4305 4.27006C6.15433 4.69371 5.91739 5.14641 5.72422 5.62206C5.53105 6.09771 5.38013 6.5963 5.27902 7.11477C5.1764 7.63324 5.12207 8.16853 5.12207 8.71759C5.12207 9.26665 5.1764 9.87841 5.27902 10.5299C5.38013 11.1815 5.53105 11.8697 5.72422 12.5748C5.91739 13.2783 6.15433 13.9971 6.4305 14.7052C6.70516 15.4134 7.01756 16.1123 7.36466 16.7761C7.71026 17.4398 8.09056 18.0699 8.49652 18.6419C8.90399 19.2124 9.34013 19.7248 9.7974 20.1545C10.2547 20.5843 10.7361 20.9315 11.2341 21.1701C11.7321 21.4086 12.2483 21.5402 12.7765 21.5402C12.9032 21.5402 13.0285 21.5325 13.1522 21.5172C13.2775 21.5035 13.4012 21.4805 13.5235 21.4515C13.6472 21.4224 13.768 21.3857 13.8887 21.3444C14.0109 21.3016 14.1302 21.2526 14.2494 21.1961C14.3686 21.141 14.4863 21.0798 14.604 21.0125C14.7202 20.9452 14.8364 20.8734 14.9511 20.7954C15.0658 20.7158 15.5578 20.2494 16.0468 19.7783"
        fill="white" />
    <path className="color-stroke" d="M17.6963 2.65347C17.4744 2.45771 17.242 2.27571 17.0021 2.10594C16.7591 1.93771 16.5086 1.78171 16.249 1.64253C15.9894 1.50182 15.7193 1.37641 15.4446 1.26935C15.1685 1.16077 14.8832 1.06747 14.5935 0.992531C14.3037 0.919119 14.0049 0.861002 13.7031 0.822766C13.3997 0.784531 13.0904 0.764648 12.7765 0.764648C12.2483 0.764648 11.7321 0.821237 11.2341 0.925237C10.7361 1.0323 10.2547 1.1883 9.7974 1.39018C9.34013 1.59053 8.90399 1.83677 8.49652 2.12277C8.09056 2.40877 7.71026 2.73453 7.36466 3.09394C7.01756 3.45335 6.70516 3.84794 6.4305 4.27006C6.15433 4.69371 5.91739 5.14641 5.72422 5.62206C5.53105 6.09771 5.38013 6.5963 5.27902 7.11477C5.1764 7.63324 5.12207 8.16853 5.12207 8.71759C5.12207 9.26665 5.1764 9.87841 5.27902 10.5299C5.38013 11.1815 5.53105 11.8697 5.72422 12.5748C5.91739 13.2783 6.15433 13.9971 6.4305 14.7052C6.70516 15.4134 7.01756 16.1123 7.36466 16.7761C7.71026 17.4398 8.09056 18.0699 8.49652 18.6419C8.90399 19.2124 9.34013 19.7248 9.7974 20.1545C10.2547 20.5843 10.7361 20.9315 11.2341 21.1701C11.7321 21.4086 12.2483 21.5402 12.7765 21.5402C12.9032 21.5402 13.0285 21.5325 13.1522 21.5172C13.2775 21.5035 13.4012 21.4805 13.5235 21.4515C13.6472 21.4224 13.768 21.3857 13.8887 21.3444C14.0109 21.3016 14.1302 21.2526 14.2494 21.1961C14.3686 21.141 14.4863 21.0798 14.604 21.0125C14.7202 20.9452 14.8364 20.8734 14.9511 20.7954C15.0658 20.7158 15.5578 20.2494 16.0468 19.7783"
        stroke="" />
    <path className="color-stroke" d="M4.53516 28.2941H12.0809" stroke="" strokeLinecap="round" />
    <path className="color-stroke color-svg" fillRule="evenodd" clipRule="evenodd" d="M32.9624 10.8494C32.9624 16.2896 28.7172 26.7308 23.4805 26.7308C18.2452 26.7308 14 16.2896 14 10.8494C14 5.40933 18.2452 1 23.4805 1C28.7172 1 32.9624 5.40933 32.9624 10.8494Z"
        fill="" stroke="" />
</svg>