<svg width="47" height="46" viewBox="0 0 47 46" fill="none" xmlns="http://www.w3.org/2000/svg">
    <path className="color-svg" d="M9 0L12.5 1L17.5 3L21.5 6.5L23.5 13L22.5 18L15 17L9.5 14.5L7 8L6.5 1.5L9 0Z" fill="#" />
    <path className="color-svg" d="M41 3.5L40.5 8L38 12L36.5 14.5L34.5 16L28 18L23 17L24 9.5L26.5 4L33 1.5L39.5 1L41 3.5Z"
        fill="#" />
    <path d="M46.6811 39.9339C44.7825 35.2261 40.391 31.9564 35.3956 31.482C34.2914 29.4513 32.6905 27.7328 30.7387 26.4896C28.8388 25.2793 26.6769 24.5706 24.4365 24.4158V19.229H28.1532C35.6092 19.229 41.6748 13.1259 41.6748 5.62406V0.942193C41.6748 0.421821 41.2556 0 40.7384 0H36.0853C30.3739 0 25.4783 3.58137 23.5 8.62936C21.5216 3.58137 16.6261 0 10.9147 0H6.26161C5.74442 0 5.32519 0.421821 5.32519 0.942193V5.62406C5.32519 13.126 11.3909 19.229 18.8468 19.229H22.5636V24.4158C20.3232 24.5706 18.1614 25.2794 16.2614 26.4896C14.3096 27.7328 12.7085 29.4512 11.6045 31.482C6.60897 31.9564 2.2175 35.2261 0.318953 39.9339C-0.226229 41.2857 -0.0656758 42.8188 0.748195 44.0349C1.5717 45.2654 2.94242 46 4.41438 46H42.5855C44.0576 46 45.4282 45.2654 46.2517 44.0349C47.0657 42.8187 47.2262 41.2857 46.6811 39.9339ZM24.4364 13.6051C24.4364 7.14223 29.662 1.88429 36.0853 1.88429H39.802V5.62397C39.802 12.0868 34.5764 17.3446 28.1531 17.3446H25.7607L35.9667 7.07573C36.3323 6.70785 36.3323 6.11128 35.9667 5.74321C35.6011 5.37533 35.0082 5.37542 34.6424 5.74321L24.4364 16.0123V13.6051ZM11.0332 7.07573L21.2392 17.3447H18.8468C12.4237 17.3447 7.19803 12.0869 7.19803 5.62397V1.88429H10.9147C17.338 1.88429 22.5636 7.14214 22.5636 13.605V16.0122L12.3576 5.7433C11.9919 5.37542 11.3991 5.37551 11.0332 5.7433C10.6676 6.11118 10.6676 6.70776 11.0332 7.07573ZM44.6983 42.9823C44.2162 43.7026 43.4461 44.1157 42.5855 44.1157H4.41447C3.55387 44.1157 2.7837 43.7026 2.30158 42.9823C1.82938 42.2767 1.73923 41.4237 2.05428 40.6423C3.74913 36.4396 7.74872 33.5668 12.2437 33.3235C12.5808 33.3052 12.8821 33.1059 13.0322 32.8016C15.0209 28.7712 19.0319 26.2674 23.5 26.2674C27.446 26.2674 31.0345 28.2212 33.1893 31.4537C32.2183 31.52 31.2597 31.6897 30.3295 31.9617C29.8328 32.1069 29.5472 32.6297 29.6916 33.1293C29.8106 33.5413 30.1844 33.8088 30.5903 33.8088C30.6767 33.8088 30.7649 33.7967 30.8521 33.7712C31.908 33.4624 33.0069 33.3058 34.1179 33.3058L34.7562 33.3236C39.2512 33.5669 43.2508 36.4397 44.9456 40.6424C45.2608 41.4237 45.1707 42.2767 44.6983 42.9823Z"
        fill="" />
</svg>