<svg width="59" height="48" viewBox="0 0 59 48" fill="none" xmlns="http://www.w3.org/2000/svg">
    <path className="color-svg" d="M28 3.5L31.5 4.5L34 11.5V18H25L26 10.5L28 3.5Z" fill="" />
    <path className="color-svg" d="M50 3.5L53.5 4.5L56 11.5V18H47L48 10.5L50 3.5Z" fill="" />
    <path className="color-svg" d="M6 3.5L9.5 4.5L12 11.5V18H3L4 10.5L6 3.5Z" fill="" />
    <path d="M8.65781 0.623377C8.4523 0.277057 8.04127 0 7.56173 0C7.08219 0 6.67116 0.277057 6.46564 0.623377C5.57507 2.28571 1.05371 10.6667 1.05371 13.7836C1.05371 17.3853 3.99944 20.3636 7.56173 20.3636C11.124 20.3636 14.0697 17.3853 14.0697 13.7836C14.0697 10.6667 9.54838 2.28571 8.65781 0.623377ZM7.56173 17.8009C5.36955 17.8009 3.58841 16 3.58841 13.7836C3.58841 12.1905 5.71208 7.54978 7.56173 3.94805C9.41137 7.54978 11.535 12.2597 11.535 13.7836C11.535 16 9.7539 17.8009 7.56173 17.8009Z"
        fill="" />
    <path d="M30.8536 0.692652C30.4426 -0.138517 29.0725 -0.138517 28.6614 0.692652C27.7709 2.35499 23.2495 10.7359 23.2495 13.8528C23.2495 17.4546 26.1952 20.4329 29.7575 20.4329C33.3198 20.4329 36.2655 17.4546 36.2655 13.8528C36.2655 10.7359 31.7442 2.35499 30.8536 0.692652ZM29.7575 17.8009C27.5654 17.8009 25.7842 16 25.7842 13.7836C25.7842 12.1905 27.9079 7.54979 29.7575 3.94806C31.6072 7.54979 33.7308 12.2598 33.7308 13.7836C33.7308 16 31.9497 17.8009 29.7575 17.8009Z"
        fill="" />
    <path d="M53.0492 0.623377C52.6381 -0.207792 51.268 -0.207792 50.857 0.623377C49.9664 2.28571 45.4451 10.6667 45.4451 13.7835C45.4451 17.4545 48.3908 20.3636 51.9531 20.3636C55.5154 20.3636 58.4611 17.3853 58.4611 13.7835C58.4611 10.6667 53.9397 2.28571 53.0492 0.623377ZM51.9531 17.8009C49.7609 17.8009 47.9798 16 47.9798 13.7835C47.9798 12.2597 50.1034 7.54978 51.9531 3.94805C53.8027 7.54978 55.9264 12.1905 55.9264 13.7835C55.9264 16 54.1453 17.8009 51.9531 17.8009Z"
        fill="" />
    <path d="M58.9408 29.0216C58.5982 28.2597 57.9132 27.9134 57.2281 28.1212C50.1036 30.4069 46.6098 29.2987 42.9105 28.1212C39.2797 27.013 35.5804 25.8355 29.0724 28.1212C21.9478 30.4069 18.4541 29.2987 14.7548 28.1212C11.124 27.013 7.42468 25.8355 0.848155 28.1212C0.163101 28.329 -0.179426 29.0909 0.0945953 29.7143C0.300112 30.4069 1.05367 30.7532 1.67022 30.4762C7.42468 28.4675 10.5074 29.4372 14.0012 30.5454C16.1934 31.2381 18.5226 32 21.6738 32C23.9345 32 26.6062 31.5844 29.8945 30.5454C35.6489 28.5368 38.7317 29.5065 42.2254 30.6147C44.4176 31.3073 46.7468 32.0692 49.898 32.0692C52.1587 32.0692 54.8304 31.6537 58.1187 30.6147C58.8038 30.4069 59.1463 29.7143 58.9408 29.0216Z"
        fill="" />
    <path d="M58.9408 36.987C58.5982 36.2251 57.9132 35.8788 57.2281 36.0866C50.1036 38.3723 46.6098 37.2641 42.9105 36.0866C39.2797 34.9783 35.5804 33.8009 29.0724 36.0866C21.9478 38.3723 18.4541 37.2641 14.7548 36.0866C11.124 34.9783 7.42468 33.8009 0.848155 36.0866C0.163101 36.2944 -0.179426 37.0563 0.0945953 37.6796C0.300112 38.3723 1.05367 38.7186 1.67022 38.4416C7.42468 36.4329 10.5074 37.4026 14.0012 38.5108C16.1934 39.2035 18.5226 39.9654 21.6738 39.9654C23.9345 39.9654 26.6062 39.5498 29.8945 38.5108C35.6489 36.5022 38.7317 37.4719 42.2254 38.5801C44.4176 39.2727 46.7468 40.0346 49.898 40.0346C52.1587 40.0346 54.8304 39.619 58.1187 38.5801C58.8038 38.3723 59.1463 37.6796 58.9408 36.987Z"
        fill="" />
    <path d="M58.9408 44.9524C58.5982 44.1905 57.9132 43.8442 57.2281 44.052C50.1036 46.3377 46.6098 45.2295 42.9105 44.052C39.2797 42.9437 35.5804 41.7663 29.0724 44.052C21.9478 46.3377 18.4541 45.2295 14.7548 44.052C11.124 42.9437 7.42468 41.7663 0.848155 44.052C0.163101 44.2598 -0.179426 45.0217 0.0945953 45.645C0.300112 46.3377 1.05367 46.684 1.67022 46.4069C7.42468 44.3983 10.5074 45.368 14.0012 46.4762C16.1934 47.1688 18.5226 47.9308 21.6738 47.9308C23.9345 47.9308 26.6062 47.5152 29.8945 46.4762C35.6489 44.4676 38.7317 45.4372 42.2254 46.5455C44.4176 47.2381 46.7468 48 49.898 48C52.1587 48 54.8304 47.5844 58.1187 46.5455C58.8038 46.3377 59.1463 45.645 58.9408 44.9524Z"
        fill="" />
</svg>