<svg width="18" height="22" viewBox="0 0 18 22" fill="none" xmlns="http://www.w3.org/2000/svg">
    <path d="M0.928913 7.87075C-0.93319 11.0983 0.250583 15.9962 2.30976 18.966C3.33762 20.4507 4.37826 21.7835 5.8036 21.7835C5.83046 21.7835 5.8574 21.783 5.88499 21.7819C6.55465 21.7552 7.03857 21.5493 7.50646 21.3503C8.03177 21.1267 8.57505 20.8955 9.42721 20.8955C10.2379 20.8955 10.7553 21.1192 11.2556 21.3354C11.7487 21.5485 12.2566 21.7689 13.0071 21.7548C14.6126 21.725 15.5983 20.2868 16.468 19.0181C17.3756 17.6934 17.8308 16.4073 17.9844 15.9158L17.9906 15.8962C18.0199 15.8089 17.9786 15.7135 17.8947 15.6751C17.8924 15.674 17.8839 15.6704 17.8815 15.6694C17.5988 15.5539 15.1187 14.455 15.0927 11.4599C15.0685 9.02643 16.9532 7.73781 17.3312 7.50425L17.3488 7.49329C17.3897 7.46696 17.4183 7.42519 17.4279 7.37744C17.4376 7.32976 17.4275 7.28014 17.4001 7.24003C16.0991 5.33851 14.1052 5.05193 13.3025 5.01746C13.186 5.00584 13.0658 5 12.945 5C12.0022 5 11.0989 5.35568 10.3733 5.64146C9.87242 5.83874 9.43977 6.00911 9.14137 6.00911C8.80607 6.00911 8.37097 5.83665 7.86711 5.63699C7.19333 5.36989 6.42964 5.06723 5.62118 5.06723C5.6019 5.06723 5.58291 5.06744 5.5642 5.0678C3.68441 5.09543 1.90817 6.16961 0.928913 7.87075Z"
        fill="currentColor" />
    <path d="M13.304 0.000138595C12.1656 0.0464468 10.8001 0.746335 9.98389 1.70121C9.29025 2.50381 8.61264 3.84199 8.79116 5.19084C8.80235 5.27523 8.8711 5.34037 8.9561 5.34693C9.03294 5.35292 9.11137 5.35595 9.18951 5.35602C10.3026 5.35602 11.5033 4.74096 12.3233 3.7506C13.1864 2.70484 13.6228 1.36277 13.4908 0.16063C13.4804 0.0664271 13.3974 -0.00354009 13.304 0.000138595Z"
        fill="currentColor" />
</svg>