<svg width="49" height="52" viewBox="0 0 49 52" fill="none" xmlns="http://www.w3.org/2000/svg">
    <path className="color-stroke" d="M1 9.99418C1 9.8319 1.0395 9.67205 1.11508 9.52843L4.11508 3.82844C4.49 3.1161 5.51 3.1161 5.88492 3.82843L8.88492 9.52844C8.9605 9.67205 9 9.8319 9 9.99418V49.5C9 50.0523 8.55228 50.5 8 50.5H2C1.44772 50.5 1 50.0523 1 49.5V9.99418Z"
        fill="white" stroke="" strokeWidth="2" />
    <path className="color-stroke color-svg" d="M21 9.94973C21 9.80167 21.0329 9.65545 21.0963 9.52165L23.7735 3.86974C24.1184 3.14152 25.1389 3.09944 25.5426 3.79679L28.8654 9.53615C28.9536 9.68841 29 9.86124 29 10.0372V49.5C29 50.0523 28.5523 50.5 28 50.5H22C21.4477 50.5 21 50.0523 21 49.5V9.94973Z"
        fill="" stroke="" strokeWidth="2" />
    <path className="color-stroke" d="M40 9.94973C40 9.80167 40.0329 9.65545 40.0963 9.52165L42.7735 3.86974C43.1184 3.14152 44.1389 3.09944 44.5426 3.79679L47.8654 9.53615C47.9536 9.68841 48 9.86124 48 10.0372V49.5C48 50.0523 47.5523 50.5 47 50.5H41C40.4477 50.5 40 50.0523 40 49.5V9.94973Z"
        fill="white" stroke="" strokeWidth="2" />
</svg>