<svg width="59" height="45" viewBox="0 0 59 45" fill="none" xmlns="http://www.w3.org/2000/svg">

    <rect className="color-svg" x="26" y="1" width="8" height="10" fill="#fff" />
    <rect className="color-svg" x="26" y="17" width="8" height="11" fill="#fff" />
    <rect className="color-svg" x="26" y="35" width="8" height="10" fill="#fff" />

    <path d="M43.4066 0H15.5934C14.3106 0.00216898 13.2465 1.00566 13.1516 2.30233L0 42.3293V42.5133C0 43.8873 1.09876 45 2.45322 45H56.5468C57.9012 45 59 43.8873 59 42.5133V42.3293L45.8484 2.27919C45.7418 0.992288 44.6812 0.00108449 43.4066 0ZM31.8562 2.30233C31.9564 2.30233 32.0381 2.38475 32.0381 2.48632V9.47427C32.0381 9.57621 31.9564 9.65827 31.8562 9.65827H27.7458C27.6448 9.65827 27.5632 9.57621 27.5632 9.47427V2.48632C27.5632 2.38475 27.6448 2.30233 27.7458 2.30233H31.8562ZM26.9273 42.7092C26.8271 42.7092 26.7454 42.6268 26.7454 42.5249V36.4923C26.7454 36.3908 26.8271 36.3087 26.9273 36.3087H32.674C32.7749 36.3087 32.8558 36.3908 32.8558 36.4923V42.5364C32.8558 42.638 32.7749 42.7204 32.674 42.7204L26.9273 42.7092ZM56.5468 42.7092H35.0819C35.0819 42.6514 35.0819 42.5943 35.0819 42.5249V36.4923C35.0819 35.1194 33.9835 34.006 32.6287 34.006H26.9273C25.5728 34.006 24.4741 35.1194 24.4741 36.4923V42.7204H2.45322C2.39402 42.7201 2.33839 42.6897 2.30522 42.6402L15.4115 2.67068V2.48632C15.4115 2.38475 15.4928 2.30233 15.5934 2.30233H25.315V9.47427C25.315 10.8476 26.4131 11.9606 27.7682 11.9606H31.8787C33.2339 11.9606 34.3323 10.8476 34.3323 9.47427V2.48632C34.3323 2.42885 34.3323 2.37137 34.3323 2.30233H43.418C43.5182 2.30233 43.5995 2.38475 43.5995 2.48632V2.67068L56.6605 42.6286C56.6345 42.6695 56.5931 42.6988 56.5468 42.7092Z"
        fill="" />
    <path d="M32.674 14.7812H26.9273C25.5729 14.7812 24.4741 15.8946 24.4741 17.2679V27.7547C24.4741 29.1284 25.5729 30.2418 26.9273 30.2418H32.674C34.0113 30.2165 35.0819 29.1107 35.0819 27.7547V17.2679C35.0819 15.912 34.0113 14.8066 32.674 14.7812ZM32.8106 27.7547C32.8106 27.857 32.7293 27.9391 32.6287 27.9391H26.9273C26.8271 27.9391 26.7455 27.857 26.7455 27.7547V17.2679C26.7455 17.166 26.8271 17.0836 26.9273 17.0836H32.674C32.7749 17.0836 32.8559 17.166 32.8559 17.2679L32.8106 27.7547Z"
        fill="" />
</svg>