<svg width="50" height="58" viewBox="0 0 50 58" fill="none" xmlns="http://www.w3.org/2000/svg">
    <path d="M48.5078 39.3417L45.8954 37.8018L47.4307 37.1339C48.947 36.4743 49.6511 34.6882 49.0051 33.1401C48.3606 31.5966 46.6065 30.8756 45.0934 31.533L39.4357 33.994L32.849 30.1116C32.9483 29.3846 32.9521 28.6429 32.849 27.8881L34.3967 26.976C34.7947 26.7414 34.931 26.2217 34.7012 25.8153C34.4715 25.4088 33.9623 25.27 33.5644 25.5043L31.5113 26.7145C31.1975 26.8995 31.037 27.2706 31.1145 27.6321C31.3091 28.5387 31.3091 29.4609 31.1145 30.3677C31.037 30.7291 31.1974 31.1003 31.5113 31.2854L38.9633 35.6778C39.1899 35.8114 39.465 35.8284 39.7055 35.7236L45.7454 33.0964C46.4138 32.8061 47.1891 33.1244 47.4738 33.8062C47.7589 34.49 47.4482 35.2792 46.7782 35.5706L43.7099 36.9053C43.0802 37.1791 43.0266 38.0729 43.62 38.4229L47.6755 40.8133C48.3044 41.184 48.5205 42.0082 48.1575 42.6503C47.8017 43.2792 47.0005 43.5212 46.3583 43.1425L42.303 40.7518C41.7095 40.4016 40.9782 40.8968 41.0608 41.5899L41.4628 44.9704C41.5052 45.3268 41.4091 45.6789 41.1921 45.9618C40.9752 46.2445 40.6633 46.4241 40.3147 46.4672C39.5847 46.5589 38.9345 46.0228 38.8477 45.2943L38.0564 38.6401C38.0249 38.3749 37.873 38.1403 37.6464 38.0068L30.1919 33.613C29.878 33.428 29.4829 33.4717 29.215 33.721C28.5506 34.34 27.7487 34.8137 26.8965 35.091C26.5514 35.2033 26.317 35.5307 26.317 35.9005V44.6849C26.317 44.952 26.44 45.2036 26.6492 45.3641L31.8981 49.3909C32.4799 49.8372 32.5974 50.6795 32.1597 51.2737C31.7188 51.873 30.8933 51.9843 30.3157 51.541L27.6492 49.4952C27.1 49.0742 26.317 49.4773 26.317 50.1745V54.9555C26.317 55.6969 25.7261 56.3002 24.9998 56.3002C24.2736 56.3002 23.6827 55.697 23.6827 54.9555V50.1745C23.6827 49.4747 22.8975 49.0754 22.3505 49.4952L19.6841 51.541C18.742 52.2627 17.4253 51.4533 17.5888 50.2768C17.6381 49.9212 17.8203 49.6066 18.1016 49.3909L23.3505 45.3642C23.5597 45.2037 23.6827 44.9521 23.6827 44.685V35.9005C23.6827 35.5307 23.4484 35.2034 23.1032 35.091C22.2511 34.8137 21.4493 34.3401 20.7848 33.721C20.5168 33.4716 20.1218 33.4279 19.8077 33.613L12.3532 38.0068C12.1267 38.1403 11.9748 38.3749 11.9432 38.6401L11.1519 45.2944C11.0654 46.0226 10.4171 46.5572 9.68549 46.4674C8.96316 46.3779 8.44887 45.7083 8.53675 44.9704L8.93875 41.5899C9.0213 40.8962 8.29009 40.4019 7.69647 40.7518L3.64098 43.1423C2.99965 43.5207 2.19798 43.2798 1.84181 42.6501C1.47876 42.0081 1.69502 41.1839 2.32392 40.8132L6.3793 38.4227C6.97181 38.0735 6.91999 37.1794 6.28942 36.9052L3.22101 35.5703C2.55127 35.2791 2.24026 34.4901 2.52553 33.8061C2.81102 33.1223 3.58362 32.8049 4.25358 33.0962L10.2939 35.7235C10.5343 35.8282 10.8094 35.8112 11.0361 35.6777L18.4881 31.2853C18.802 31.1003 18.9624 30.7292 18.8848 30.3676C18.6904 29.4613 18.6902 28.5389 18.8848 27.6321C18.9624 27.2707 18.802 26.8995 18.4881 26.7144L11.0361 22.3219C10.8096 22.1884 10.5345 22.1715 10.2939 22.2762L4.25358 24.9035C3.57929 25.1963 2.80936 24.8735 2.52564 24.1934C2.24093 23.5114 2.55294 22.7198 3.22101 22.4291L6.28931 21.0944C6.91999 20.8201 6.9717 19.9262 6.3793 19.5769L2.32392 17.1864C1.69346 16.8149 1.47787 15.9933 1.84181 15.3495C2.20553 14.7061 3.01052 14.4854 3.64109 14.8573L7.69669 17.2479C8.29153 17.5984 9.0213 17.1016 8.93897 16.4097L8.53697 13.0292C8.44909 12.2916 8.96283 11.6218 9.68593 11.5323C10.4066 11.4426 11.0642 11.9656 11.1521 12.7052L11.9435 19.3594C11.975 19.6246 12.1269 19.8592 12.3535 19.9928L19.8079 24.3866C20.122 24.5717 20.517 24.528 20.785 24.2785C21.4493 23.6598 22.2511 23.1859 23.1035 22.9085C23.4486 22.7962 23.683 22.4689 23.683 22.099V13.3147C23.683 13.0475 23.5599 12.7959 23.3508 12.6354L18.1018 8.60876C17.5213 8.16334 17.4038 7.31861 17.8401 6.72581C18.2772 6.13165 19.1023 6.01191 19.6842 6.45858L22.3507 8.5042C22.8988 8.92436 23.683 8.52368 23.683 7.82497V3.04408C23.683 2.30265 24.2737 1.69932 25 1.69932C25.7262 1.69932 26.3172 2.30254 26.3172 3.04408V7.8252C26.3172 8.52493 27.1023 8.92424 27.6495 8.50443L30.3157 6.45892C30.8965 6.01373 31.724 6.13358 32.1601 6.72603C32.5965 7.31883 32.479 8.16357 31.8983 8.60898L26.6495 12.6357C26.4404 12.7962 26.3173 13.0478 26.3173 13.3149V15.9404C26.3173 16.4096 26.6898 16.79 27.1495 16.79C27.6092 16.79 27.9817 16.4096 27.9817 15.9404V13.7392L32.8983 9.96745C34.2127 8.95902 34.4784 7.04696 33.4907 5.70515C32.5035 4.36391 30.6309 4.09226 29.316 5.10023L27.9818 6.12395V3.04408C27.9818 1.3656 26.6442 0 25.0001 0C23.3562 0 22.0186 1.3656 22.0186 3.04408V6.12395L20.6839 5.10023C19.3662 4.08932 17.4991 4.36006 16.5091 5.70526C15.5216 7.04718 15.7875 8.95925 17.1016 9.96745L22.0184 13.7391V21.5045C21.3466 21.7847 20.7093 22.1612 20.135 22.6174L13.5456 18.7333L12.8043 12.5006C12.6057 10.8283 11.1177 9.64154 9.4851 9.84556C7.84926 10.0481 6.68587 11.5639 6.8846 13.2342L7.08576 14.9258L4.4735 13.386C3.04692 12.5446 1.22445 13.0427 0.400478 14.5003C-0.423379 15.9572 0.0643884 17.8172 1.49185 18.6583L4.10412 20.1982L2.5688 20.8661C1.05624 21.524 0.350103 23.3155 0.994432 24.8597C1.64109 26.4093 3.39266 27.1256 4.90601 26.467L10.5639 24.006L17.1505 27.8884C17.0524 28.6075 17.0464 29.3491 17.1506 30.1118L10.5639 33.9943L4.90612 31.5332C3.39055 30.8738 1.64054 31.5917 0.994432 33.1405C0.34855 34.6883 1.05224 36.4747 2.56869 37.1341L4.10412 37.802L1.49185 39.3418C0.0681609 40.1809 -0.421382 42.0462 0.400478 43.5C1.21857 44.9469 3.04215 45.458 4.47338 44.6142L7.08576 43.0743L6.8846 44.7658C6.78862 45.5729 7.00621 46.3699 7.4973 47.0101C9.13248 49.141 12.4852 48.1842 12.8042 45.4996L13.5455 39.2666L20.1348 35.3826C20.7092 35.8387 21.3467 36.2152 22.0183 36.4955V44.2609L17.1016 48.0327C15.7872 49.0409 15.5214 50.9528 16.509 52.2947C17.499 53.6402 19.366 53.9102 20.6838 52.8999L22.0182 51.8761V54.9559C22.0182 56.6344 23.3558 58 24.9997 58C26.6437 58 27.9813 56.6344 27.9813 54.9559V51.8762L29.3156 52.8998C30.645 53.92 32.5128 53.6234 33.4904 52.2949C34.4804 50.9496 34.2154 49.0435 32.8979 48.0327L27.9812 44.2609V36.4955C28.6528 36.2152 29.2903 35.8388 29.8647 35.3826L36.454 39.2666L37.1953 45.4995C37.5157 48.1953 40.8752 49.1302 42.5022 47.0101C42.9934 46.3701 43.211 45.5729 43.1149 44.7658L42.9137 43.0743L45.5259 44.6141C46.9505 45.4543 48.7772 44.9534 49.5989 43.5C50.421 42.0462 49.9316 40.181 48.5078 39.3417Z"
        fill="" />
    <path d="M47.1141 21.0434L45.5787 20.3756L48.1911 18.8357C49.6182 17.9945 50.1065 16.1347 49.2824 14.6776C48.4586 13.2205 46.6367 12.7218 45.2096 13.5634L42.5972 15.1032L42.7984 13.4117C42.9967 11.7416 41.8339 10.2253 40.198 10.0227C38.5617 9.81923 37.0771 11.0073 36.8785 12.6776L36.1372 18.9104L29.5477 22.7945C28.9734 22.3385 28.3361 21.9619 27.6644 21.6816V16.904C27.6644 16.4348 27.2919 16.0544 26.8322 16.0544C26.3725 16.0544 26 16.4348 26 16.904V22.2762C26 22.6461 26.2342 22.9734 26.5794 23.0857C27.4319 23.3632 28.2336 23.8369 28.898 24.4558C29.1657 24.705 29.5607 24.7489 29.8751 24.5638L37.3295 20.17C37.5561 20.0365 37.708 19.8019 37.7395 19.5367L38.5308 12.8824C38.6178 12.1499 39.2679 11.6197 39.9973 11.7095C40.7196 11.799 41.2339 12.4685 41.146 13.2065L40.744 16.5869C40.7059 16.9065 40.8482 17.2206 41.1113 17.3982C41.3743 17.5758 41.7132 17.5861 41.9863 17.4251L46.0421 15.0346C46.6723 14.6629 47.4769 14.883 47.841 15.5269C48.2051 16.1705 47.9895 16.9922 47.359 17.3637L43.3036 19.7542C43.0305 19.9151 42.8699 20.2199 42.889 20.5412C42.9081 20.8626 43.1034 21.1454 43.3935 21.2716L46.4618 22.6062C47.1299 22.8969 47.4419 23.6885 47.1573 24.3706C46.8729 25.0516 46.1023 25.3731 45.4292 25.0806L39.3891 22.4533C39.1488 22.3487 38.8736 22.3655 38.6469 22.4991L31.5092 26.8061C31.1112 27.0407 30.9749 27.5603 31.2047 27.9667C31.4343 28.3732 31.9435 28.5121 32.3415 28.2777L39.1192 24.1829L44.7772 26.644C46.2896 27.3015 48.0412 26.5882 48.6886 25.0367C49.333 23.4929 48.6266 21.7013 47.1141 21.0434Z"
        fill="" />
    <circle className="color-svg" cx="25" cy="29" r="5" fill="" />
</svg>