<?xml version="1.0" encoding="utf-8"?><svg xmlns="http://www.w3.org/2000/svg" xmlns:xlink="http://www.w3.org/1999/xlink"><symbol fill="none" viewBox="0 0 20 20" id="alert" xmlns="http://www.w3.org/2000/svg"><path fill-rule="evenodd" clip-rule="evenodd" d="M10.992 10.899c0 .503-.54.986-.992.986-.45 0-.992-.483-.992-.986v-5.91c0-.502.447-.986.992-.984.545.002.992.482.992.984v5.91zM10 15.806a.988.988 0 0 1-.992-.983c0-.543.443-.984.992-.984.548 0 .992.44.992.984a.99.99 0 0 1-.992.983zM0 9.905c0 5.423 4.485 9.835 9.999 9.835C15.514 19.74 20 15.328 20 9.905 20 4.482 15.514.07 9.999.07 4.486.07 0 4.482 0 9.905z" fill="#1365AA"/></symbol><symbol fill="none" viewBox="0 0 18 22" id="apple" xmlns="http://www.w3.org/2000/svg"><path d="M.929 7.87c-1.862 3.228-.678 8.126 1.38 11.096 1.029 1.485 2.07 2.817 3.495 2.817l.081-.001c.67-.027 1.154-.233 1.621-.432.526-.223 1.069-.455 1.921-.455.81 0 1.328.224 1.829.44.493.213 1 .434 1.751.42 1.606-.03 2.591-1.468 3.461-2.737a12.123 12.123 0 0 0 1.516-3.102l.007-.02a.18.18 0 0 0-.11-.227c-.282-.115-2.762-1.214-2.788-4.21-.024-2.433 1.86-3.721 2.238-3.955l.018-.01a.18.18 0 0 0 .051-.254c-1.3-1.901-3.295-2.188-4.097-2.223A3.616 3.616 0 0 0 12.944 5c-.943 0-1.846.356-2.572.641-.5.198-.933.368-1.232.368-.335 0-.77-.172-1.274-.372-.674-.267-1.437-.57-2.246-.57h-.057C3.684 5.096 1.908 6.17.93 7.872z" fill="currentColor"/><path d="M13.304 0c-1.138.046-2.504.746-3.32 1.701-.694.803-1.371 2.141-1.193 3.49a.18.18 0 0 0 .165.156c.077.006.155.009.234.009 1.113 0 2.313-.615 3.133-1.605.863-1.046 1.3-2.388 1.168-3.59a.182.182 0 0 0-.187-.16z" fill="currentColor"/></symbol><symbol viewBox="0 0 24 17" id="arrow" xmlns="http://www.w3.org/2000/svg"><path d="M0 8.5h21.5m1 1L14 1m8.5 6.5L14 16" stroke="currentColor" stroke-width="3" fill="none" fill-rule="evenodd"/></symbol><symbol viewBox="0 0 1520 847" fill="none" id="city" xmlns="http://www.w3.org/2000/svg"><path d="M1494.7 231.976L1 786.847M1519 254.153L25.301 809.024" stroke="#72DDAF" stroke-width="5"/><path d="M452.86 634.061c0 7.077 5.725 12.805 12.776 12.805 7.052 0 12.776-5.728 12.776-12.805s-5.724-12.806-12.776-12.806c-7.051 0-12.776 5.729-12.776 12.806z" fill="#51BB8F" stroke="#72DDAF" stroke-width="5"/><path d="M427.862 634.061c0 7.077 5.725 12.805 12.776 12.805 7.052 0 12.777-5.728 12.777-12.805s-5.725-12.806-12.777-12.806c-7.051 0-12.776 5.729-12.776 12.806z" fill="#51BB8F" stroke="#72DDAF" stroke-width="5"/><rect x="-2.5" y="2.5" width="92.211" height="111.879" rx="3.5" transform="matrix(-1 0 0 1 495.577 647.149)" fill="#51BB8F" stroke="#72DDAF" stroke-width="5"/><rect width="11.11" height="47.308" rx="2" transform="matrix(-1 0 0 1 470.025 663.585)" fill="#72DDAF"/><rect width="11.11" height="47.308" rx="2" transform="matrix(-1 0 0 1 445.027 663.585)" fill="#72DDAF"/><rect x="1258.97" y="680.754" width="103.532" height="165.926" rx="2.5" fill="#4EBA94" stroke="#72DDAF" stroke-width="5"/><rect x="1033.76" y="767.574" width="103.532" height="165.926" rx="2.5" stroke="#72DDAF" stroke-width="5"/><rect x="966.93" y="680.754" width="103.532" height="165.926" rx="2.5" fill="#4FBA92" stroke="#72DDAF" stroke-width="5"/><rect x="1101.6" y="555.951" width="163.225" height="290.73" rx="2.5" fill="#4EBA94" stroke="#72DDAF" stroke-width="5"/><rect x="1204.92" y="591.434" width="24.42" height="24.418" rx="2" fill="#72DDAF"/><rect x="1139.8" y="642.984" width="24.42" height="24.418" rx="2" fill="#72DDAF"/><rect x="1204.92" y="710.812" width="24.42" height="24.418" rx="2" fill="#72DDAF"/><path d="M797.918 800.344l170.928 1.357M572.5 724a2.5 2.5 0 0 1 2.5-2.5h60.5V844a2.5 2.5 0 0 1-2.5 2.5h-58a2.5 2.5 0 0 1-2.5-2.5V724zM615.913 657.549a2.5 2.5 0 0 1 2.5-2.5h84.966a2.5 2.5 0 0 1 2.5 2.5v57.828a2.5 2.5 0 0 1-2.5 2.5h-87.466v-60.328zM706.452 680.754h87.466a2.5 2.5 0 0 1 2.5 2.5V844.18a2.5 2.5 0 0 1-2.5 2.5h-84.966a2.5 2.5 0 0 1-2.5-2.5V680.754z" stroke="#72DDAF" stroke-width="5"/><path fill="#51BB90" d="M624 711h60v94h-60z"/><path fill="#51BB90" d="M623 702h157v103H623z"/><path fill="#51BB90" d="M618 658h59v147h-59z"/><path fill="#51BB90" d="M670 754h118v95H670zM614 787h37v70h-37zM684 683h49v71h-49z"/><rect x="678.533" y="735.229" width="27.133" height="24.418" rx="2" fill="#72DDAF"/><rect x="633" y="681" width="27.133" height="24.418" rx="2" fill="#72DDAF"/></symbol><symbol fill="none" viewBox="0 0 44 53" id="garbage" xmlns="http://www.w3.org/2000/svg"><rect x="6" y="10" width="32" height="42" rx="1" fill="#fff" stroke="#CCD7D2" stroke-width="2"/><circle cx="22.5" cy="6.5" r="5.5" stroke="#CCD7D2" stroke-width="2"/><rect x="1" y="8" width="42" height="10" rx="5" fill="#fff" stroke="#CCD7D2" stroke-width="2"/><rect x="14" y="31" width="2" height="13" rx="1" fill="#CCD7D2"/><rect x="21" y="31" width="2" height="13" rx="1" fill="#CCD7D2"/><rect x="28" y="31" width="2" height="13" rx="1" fill="#CCD7D2"/></symbol><symbol fill="none" viewBox="0 0 15 17" id="google" xmlns="http://www.w3.org/2000/svg"><path d="M8.718 8.502l-8.116 8.22A1.476 1.476 0 0 1 0 15.51V1.493A1.476 1.476 0 0 1 .602.28L8.718 8.5z" fill="currentColor"/><path d="M11.558 5.63l-2.84 2.872L.602.28A1.33 1.33 0 0 1 2.1.188l9.46 5.442z" fill="currentColor"/><path d="M15 8.502a1.49 1.49 0 0 1-.734 1.312l-2.708 1.559-2.84-2.871 2.84-2.872 2.708 1.56c.457.26.74.765.734 1.311z" fill="currentColor"/><path d="M11.558 11.373L2.1 16.815a1.347 1.347 0 0 1-1.402-.024 1.059 1.059 0 0 1-.095-.069l8.116-8.22 2.84 2.87z" fill="currentColor"/></symbol><symbol fill="none" viewBox="0 0 47 40" id="neighbors" xmlns="http://www.w3.org/2000/svg"><path d="M39.446 16.059l.534-.54-.514-.521-.533.5.513.56zm6.788 9.404l-.752-.061v.002l.752.06zm-.974 2.29l.472.596-.472-.596zm-18.842.541l-.513-.56-1.412 1.325h1.925v-.765zm2.886-25.64l-.496-.577-.293.259.037.392.752-.074zm.695-.548l-.425-.631-.005.003.43.628zm.752-.463l-.355-.676.355.676zm.806-.374l.27.715.003-.002-.273-.713zm.85-.276L32.224.25l-.005.002.186.74zm3.36-.068l.157-.748h-.005l-.152.748zm1.437.465l-.3.702.3-.702zm1.3.733l-.431.628.43-.628zM40.57 4.27l.63-.42-.63.42zm.706 1.352l.698-.29-.001-.003-.697.293zm0 6.953l.727.206v-.002l-.727-.204zm-2.774 6.067l-.612-.448.612.448zm-1.3 1.513l.513.561h.001l-.513-.561zm-3.356 1.362l.092-.759h-.01l-.082.76zm-.37-.066l-.173.745h.002l.17-.745zm-.366-.107l-.25.722.009.003.241-.724zm-.36-.148l.32-.692-.006-.004-.313.696zm-.354-.183l.375-.664-.004-.003-.37.667zm-.347-.218l-.426.631.006.004.42-.635zm-1.097-1.017l-.751.075.027.285.206.196.518-.556zm-23.4-3.72l.514-.56-.533-.5-.514.52.534.54zM.767 25.464l-.753.061.753-.06zm.976 2.29l.473-.596-.001-.001-.472.597zm18.84.541v.765h1.924l-1.411-1.326-.513.561zM38.912 16.6c.396.401 1.062.983 1.767 1.627a34.699 34.699 0 0 1 2.281 2.253c.751.828 1.423 1.694 1.887 2.553.466.862.692 1.66.635 2.37l1.505.123c.089-1.12-.273-2.223-.816-3.228-.546-1.01-1.307-1.979-2.1-2.853-.796-.877-1.645-1.68-2.381-2.353-.755-.69-1.351-1.209-1.71-1.573L38.913 16.6zm6.57 8.805c-.038.504-.13 1.293-.695 1.752l.945 1.193c1.131-.92 1.22-2.38 1.255-2.827l-1.505-.118zm-.695 1.752c-.279.227-.669.373-1.2.373v1.53c.816 0 1.555-.23 2.145-.71l-.945-1.193zm-1.2.373h-17.17v1.53h17.17v-1.53zm-4.654-12.031L25.905 27.733l1.026 1.122L39.959 16.62l-1.026-1.122zM29.8 3.23c.2-.176.41-.34.63-.496l-.86-1.256a8.762 8.762 0 0 0-.761.599l.991 1.153zm.626-.493c.223-.154.45-.295.68-.42l-.709-1.35c-.285.155-.56.326-.823.508l.852 1.262zm.68-.42a6.39 6.39 0 0 1 .721-.333L31.287.555a7.88 7.88 0 0 0-.89.412l.708 1.35zm.725-.335a6.61 6.61 0 0 1 .763-.248L32.22.252c-.321.083-.634.185-.936.304l.546 1.426zm.758-.247c.267-.067.533-.12.803-.153L33.205.064a8.273 8.273 0 0 0-.98.186l.362 1.485zm.803-.153a6.64 6.64 0 0 1 .832-.053V0c-.345 0-.684.022-1.018.064l.186 1.518zm.832-.053c.475 0 .942.051 1.392.145l.304-1.498A8.3 8.3 0 0 0 34.223 0v1.53zm1.388.144c.448.097.88.237 1.292.419l.601-1.403a8.196 8.196 0 0 0-1.58-.512l-.313 1.496zm1.293.42c.411.18.804.4 1.168.658l.862-1.256a8.2 8.2 0 0 0-1.43-.807l-.6 1.404zm1.17.658c.367.259.71.553 1.022.877l1.081-1.068a8.51 8.51 0 0 0-1.244-1.066l-.86 1.257zm1.022.877c.313.325.597.681.845 1.063l1.26-.842a8.734 8.734 0 0 0-1.024-1.289l-1.08 1.068zm.844 1.062c.249.383.464.794.64 1.225l1.394-.586a8.958 8.958 0 0 0-.773-1.479l-1.26.84zm.64 1.223c.174.431.31.882.402 1.35l1.48-.296a8.842 8.842 0 0 0-.487-1.636l-1.396.582zm.402 1.35c.092.473.143.958.143 1.455h1.509c0-.602-.062-1.187-.172-1.751l-1.48.296zm.143 1.455c0 .499-.051 1.07-.148 1.693l1.49.238c.106-.68.167-1.332.167-1.931h-1.51zm-.148 1.693c-.096.619-.24 1.278-.427 1.96l1.454.408c.2-.729.357-1.446.464-2.13l-1.491-.238zm-.426 1.957a21.818 21.818 0 0 1-.683 2.058l1.405.559c.284-.732.53-1.476.73-2.204l-1.453-.413zm-.683 2.058a20.028 20.028 0 0 1-.899 1.993l1.335.714c.36-.69.685-1.415.969-2.148l-1.405-.56zm-.899 1.993a15.068 15.068 0 0 1-1.078 1.775l1.224.896c.43-.605.83-1.266 1.189-1.957l-1.335-.714zm-1.078 1.776a9.413 9.413 0 0 1-1.2 1.399l1.026 1.121c.5-.47.968-1.022 1.398-1.626l-1.224-.894zm-1.2 1.398c-.416.39-.833.688-1.246.886l.645 1.383c.583-.28 1.125-.677 1.626-1.146l-1.024-1.123zm-1.246.886c-.412.197-.82.297-1.222.297v1.529c.655 0 1.282-.163 1.867-.444l-.645-1.382zm-1.222.297c-.096 0-.191-.006-.284-.018l-.183 1.518c.155.02.31.029.467.029v-1.53zm-.293-.019a2.42 2.42 0 0 1-.283-.05l-.341 1.49c.146.034.3.063.46.08l.164-1.52zm-.281-.05a3.216 3.216 0 0 1-.297-.087l-.482 1.449c.138.047.284.091.434.127l.345-1.489zm-.289-.084a3.037 3.037 0 0 1-.288-.12l-.64 1.386c.143.067.286.126.43.177l.498-1.443zm-.295-.123a3.571 3.571 0 0 1-.293-.151l-.75 1.328c.139.08.279.151.417.215l.626-1.392zm-.297-.154a4.451 4.451 0 0 1-.297-.186l-.841 1.27c.13.089.261.171.396.249l.742-1.332zm-.292-.182c.016.011-.002 0-.078-.069a14.977 14.977 0 0 1-.243-.223 83.054 83.054 0 0 1-.684-.65l-1.036 1.112c.246.236.494.473.697.662.176.165.377.351.492.43l.852-1.262zM28.552 2.728l1.65 17.125 1.502-.149-1.65-17.125-1.502.149zM7.02 15.518c-.36.364-.955.883-1.71 1.573-.736.673-1.584 1.476-2.38 2.353-.794.874-1.554 1.843-2.1 2.853-.543 1.005-.905 2.107-.817 3.227l1.505-.122c-.057-.71.169-1.508.635-2.37.465-.859 1.136-1.725 1.887-2.553.749-.825 1.557-1.59 2.281-2.253.705-.644 1.37-1.226 1.766-1.627L7.02 15.52zM.013 25.524c.036.444.123 1.905 1.257 2.826l.944-1.194c-.566-.46-.656-1.247-.696-1.754l-1.505.122zm1.256 2.824c.589.481 1.33.71 2.144.71V27.53c-.53 0-.92-.146-1.198-.372l-.946 1.191zm2.144.71h17.17V27.53H3.412v1.53zM7.04 16.62l13.028 12.235 1.026-1.122L8.067 15.498 7.04 16.62z" fill="#CCD7D2"/><path fill-rule="evenodd" clip-rule="evenodd" d="M28.958 23.022c-1.564 2.325-3.48 3.981-5.558 3.981-2.036 0-3.917-1.587-5.462-3.835-4.795 2.765-8.581 8.398-8.448 11.698C9.577 37.084 10.81 39 12.768 39H34.03c1.96 0 3.21-1.916 3.28-4.134.131-4.2-3.602-9.354-8.353-11.844z" fill="#fff"/><path clip-rule="evenodd" d="M28.958 23.022c-1.564 2.325-3.48 3.981-5.558 3.981-2.036 0-3.917-1.587-5.462-3.835-4.795 2.765-8.581 8.398-8.448 11.698C9.577 37.084 10.81 39 12.768 39H34.03c1.96 0 3.21-1.916 3.28-4.134.131-4.2-3.602-9.354-8.353-11.844z" stroke="#CCD7D2"/><path d="M17.696 2.653a7.8 7.8 0 0 0-1.447-1.01 7.383 7.383 0 0 0-1.655-.65 7.449 7.449 0 0 0-1.818-.228c-.528 0-1.044.056-1.542.16a7.519 7.519 0 0 0-2.738 1.198A7.82 7.82 0 0 0 6.43 4.27 8.07 8.07 0 0 0 5.28 7.115a8.244 8.244 0 0 0-.157 1.603c0 .549.054 1.16.157 1.812.101.652.252 1.34.445 2.045a21.725 21.725 0 0 0 1.64 4.201c.346.664.727 1.294 1.133 1.866.407.57.843 1.083 1.3 1.512.458.43.94.777 1.437 1.016.498.239 1.014.37 1.543.37.126 0 .252-.008.375-.023.126-.014.25-.037.372-.066a3.849 3.849 0 0 0 1.08-.439c.116-.067.232-.139.347-.217.115-.08.607-.546 1.096-1.017" fill="#fff"/><path d="M17.696 2.653a7.8 7.8 0 0 0-1.447-1.01 7.383 7.383 0 0 0-1.655-.65 7.449 7.449 0 0 0-1.818-.228c-.528 0-1.044.056-1.542.16a7.519 7.519 0 0 0-2.738 1.198A7.82 7.82 0 0 0 6.43 4.27 8.07 8.07 0 0 0 5.28 7.115a8.244 8.244 0 0 0-.157 1.603c0 .549.054 1.16.157 1.812.101.652.252 1.34.445 2.045a21.725 21.725 0 0 0 1.64 4.201c.346.664.727 1.294 1.133 1.866.407.57.843 1.083 1.3 1.512.458.43.94.777 1.437 1.016.498.239 1.014.37 1.543.37.126 0 .252-.008.375-.023.126-.014.25-.037.372-.066a3.849 3.849 0 0 0 1.08-.439c.116-.067.232-.139.347-.217.115-.08.607-.546 1.096-1.017" stroke="#CCD7D2"/><path d="M4.535 28.294h7.546" stroke="#CCD7D2" stroke-linecap="round"/><path fill-rule="evenodd" clip-rule="evenodd" d="M32.962 10.85c0 5.44-4.245 15.88-9.482 15.88-5.235 0-9.48-10.44-9.48-15.88C14 5.41 18.245 1 23.48 1c5.237 0 9.482 4.41 9.482 9.85z" fill="#fff" stroke="#CCD7D2"/></symbol><symbol fill="none" viewBox="0 0 34 30" id="ok" xmlns="http://www.w3.org/2000/svg"><path d="M26 15.569c0 7.137-5.622 12.875-12.5 12.875S1 22.706 1 15.57 6.622 2.693 13.5 2.693 26 8.432 26 15.57z" stroke="#56BB85" stroke-width="2"/><path d="M12.663 21.112l1.049 1.032 1.064-1.017L30 6.565 27.902 4.44 12.678 19.003l2.113.015-5.663-5.572L7 15.54l5.663 5.572z" fill="#fff" stroke="#fff" stroke-width="5"/><path d="M13.17 20.243l.958.918.972-.905L29 7.312l-1.915-1.887-13.9 12.944 1.928.013-5.17-4.953L8 15.292l5.17 4.952z" fill="#56BB85"/></symbol><symbol fill="none" viewBox="0 0 14 15" id="orange" xmlns="http://www.w3.org/2000/svg"><path opacity=".3" fill-rule="evenodd" clip-rule="evenodd" d="M7 14.345c3.866 0 7-3.102 7-6.927C14 3.592 10.866.49 7 .49S0 3.592 0 7.418c0 3.825 3.134 6.927 7 6.927z" fill="#FFA149"/><path fill-rule="evenodd" clip-rule="evenodd" d="M7 11.377c2.21 0 4-1.772 4-3.959C11 5.232 9.21 3.46 7 3.46S3 5.232 3 7.418c0 2.187 1.79 3.959 4 3.959z" fill="#FFA149"/></symbol><symbol fill="none" viewBox="0 0 47 46" id="plants" xmlns="http://www.w3.org/2000/svg"><path d="M46.681 39.934c-1.898-4.708-6.29-7.978-11.285-8.452a13.646 13.646 0 0 0-4.657-4.992 13.438 13.438 0 0 0-6.303-2.074v-5.187h3.717c7.456 0 13.522-6.103 13.522-13.605V.942A.94.94 0 0 0 40.738 0h-4.653C30.374 0 25.478 3.581 23.5 8.63 21.522 3.58 16.626 0 10.915 0H6.262a.94.94 0 0 0-.937.942v4.682c0 7.502 6.066 13.605 13.522 13.605h3.717v5.187a13.44 13.44 0 0 0-6.303 2.074 13.643 13.643 0 0 0-4.656 4.992c-4.996.474-9.388 3.744-11.286 8.452a4.406 4.406 0 0 0 .43 4.1A4.407 4.407 0 0 0 4.413 46h38.172a4.407 4.407 0 0 0 3.666-1.965 4.406 4.406 0 0 0 .43-4.101zM24.436 13.605c0-6.463 5.226-11.72 11.65-11.72h3.716v3.739c0 6.463-5.226 11.72-11.649 11.72h-2.392L35.967 7.077a.947.947 0 0 0 0-1.333.933.933 0 0 0-1.325 0l-10.206 10.27v-2.408zm-13.403-6.53l10.206 10.27h-2.392c-6.423 0-11.649-5.258-11.649-11.721v-3.74h3.717c6.423 0 11.649 5.258 11.649 11.721v2.407L12.358 5.743a.933.933 0 0 0-1.325 0 .946.946 0 0 0 0 1.333zm33.665 35.907a2.508 2.508 0 0 1-2.112 1.134H4.414c-.86 0-1.63-.413-2.112-1.134a2.482 2.482 0 0 1-.248-2.34c1.695-4.202 5.695-7.075 10.19-7.319a.936.936 0 0 0 .788-.521c1.989-4.03 6-6.535 10.468-6.535 3.946 0 7.535 1.954 9.69 5.187-.972.066-1.93.236-2.86.508a.943.943 0 0 0 .522 1.81 11.63 11.63 0 0 1 3.266-.466l.638.018c4.495.243 8.495 3.116 10.19 7.318a2.48 2.48 0 0 1-.248 2.34z" fill="#CCD7D2"/></symbol><symbol fill="none" viewBox="0 0 49 52" id="repair" xmlns="http://www.w3.org/2000/svg"><path d="M1 9.994a1 1 0 0 1 .115-.466l3-5.7a1 1 0 0 1 1.77 0l3 5.7A1 1 0 0 1 9 9.994V49.5a1 1 0 0 1-1 1H2a1 1 0 0 1-1-1V9.994zM21 9.95a1 1 0 0 1 .096-.428l2.677-5.652a1 1 0 0 1 1.77-.073l3.322 5.74a1 1 0 0 1 .135.5V49.5a1 1 0 0 1-1 1h-6a1 1 0 0 1-1-1V9.95zM40 9.95a1 1 0 0 1 .096-.428l2.678-5.652a1 1 0 0 1 1.769-.073l3.322 5.74a1 1 0 0 1 .135.5V49.5a1 1 0 0 1-1 1h-6a1 1 0 0 1-1-1V9.95z" stroke="#CCD7D2" stroke-width="2"/></symbol><symbol fill="none" viewBox="0 0 59 45" id="road" xmlns="http://www.w3.org/2000/svg"><path class="lcolor-svg" fill="#fff" d="M26 1h8v10h-8zM26 17h8v11h-8zM26 35h8v10h-8z"/><path d="M43.407 0H15.593c-1.282.002-2.347 1.006-2.441 2.302L0 42.33v.184C0 43.887 1.099 45 2.453 45h54.094C57.9 45 59 43.887 59 42.513v-.184L45.848 2.28C45.742.992 44.681.001 43.407 0zm-11.55 2.302c.1 0 .181.083.181.184v6.988a.183.183 0 0 1-.182.184h-4.11a.183.183 0 0 1-.183-.184V2.486c0-.101.082-.184.183-.184h4.11zm-4.93 40.407a.183.183 0 0 1-.182-.184v-6.033c0-.101.082-.183.182-.183h5.747c.1 0 .182.082.182.183v6.044c0 .102-.081.184-.182.184l-5.747-.01zm29.62 0H35.082V36.492c0-1.373-1.099-2.486-2.453-2.486h-5.702c-1.354 0-2.453 1.113-2.453 2.486v6.228H2.454a.18.18 0 0 1-.149-.08L15.412 2.67v-.184c0-.101.08-.184.181-.184h9.722v7.172c0 1.374 1.098 2.487 2.453 2.487h4.11c1.356 0 2.454-1.113 2.454-2.487V2.486v-.184h9.086c.1 0 .181.083.181.184v.185l13.062 39.958a.184.184 0 0 1-.114.08z" fill="#000"/><path d="M32.674 14.781h-5.747c-1.354 0-2.453 1.114-2.453 2.487v10.487c0 1.373 1.099 2.487 2.453 2.487h5.747c1.337-.026 2.408-1.131 2.408-2.487V17.268c0-1.356-1.07-2.461-2.408-2.487zm.137 12.974a.183.183 0 0 1-.182.184h-5.702a.183.183 0 0 1-.181-.184V17.268c0-.102.081-.184.181-.184h5.747c.1 0 .182.082.182.184l-.045 10.487z" fill="#000"/></symbol><symbol viewBox="0 0 1002 46" id="round-border" xmlns="http://www.w3.org/2000/svg"><path d="M1 1.375c101.598 26.081 287.5 43.547 500 43.547s398.402-17.466 500-43.547v43.547H1V1.375z" stroke="#FFF" fill="#FFF" fill-rule="evenodd"/></symbol><symbol fill="none" viewBox="0 0 50 58" id="snowflake" xmlns="http://www.w3.org/2000/svg"><path d="M48.508 39.342l-2.613-1.54 1.536-.668c1.516-.66 2.22-2.446 1.574-3.994-.644-1.543-2.399-2.264-3.912-1.607l-5.657 2.461-6.587-3.882a8.18 8.18 0 0 0 0-2.224l1.548-.912a.86.86 0 0 0 .304-1.16.823.823 0 0 0-1.137-.312l-2.053 1.21a.857.857 0 0 0-.396.918 6.482 6.482 0 0 1 0 2.736.857.857 0 0 0 .396.917l7.452 4.393c.227.133.502.15.742.046l6.04-2.628a1.31 1.31 0 0 1 1.729.71 1.355 1.355 0 0 1-.696 1.765l-3.068 1.334c-.63.274-.683 1.168-.09 1.518l4.056 2.39c.628.371.844 1.195.481 1.837a1.304 1.304 0 0 1-1.799.492l-4.055-2.39c-.593-.35-1.325.145-1.242.838l.402 3.38c.042.357-.054.709-.27.992a1.301 1.301 0 0 1-.878.505c-.73.092-1.38-.444-1.467-1.173l-.792-6.654a.85.85 0 0 0-.41-.633l-7.454-4.394a.82.82 0 0 0-.977.108 6.276 6.276 0 0 1-2.319 1.37.848.848 0 0 0-.579.81v8.784c0 .267.123.519.332.68l5.25 4.026c.58.446.698 1.288.26 1.883-.44.599-1.266.71-1.843.267l-2.667-2.046c-.549-.42-1.332-.018-1.332.68v4.78c0 .742-.59 1.345-1.317 1.345-.726 0-1.317-.603-1.317-1.344v-4.782c0-.7-.785-1.099-1.332-.679l-2.667 2.046c-.942.722-2.259-.088-2.095-1.264.05-.356.231-.67.513-.886l5.248-4.027a.856.856 0 0 0 .333-.679V35.9a.848.848 0 0 0-.58-.809 6.276 6.276 0 0 1-2.318-1.37.82.82 0 0 0-.977-.108l-7.455 4.394a.85.85 0 0 0-.41.633l-.791 6.654c-.087.729-.735 1.263-1.467 1.173-.722-.09-1.236-.759-1.148-1.497l.402-3.38c.082-.694-.649-1.188-1.243-.838l-4.055 2.39a1.303 1.303 0 0 1-1.8-.492 1.362 1.362 0 0 1 .483-1.837l4.055-2.39c.593-.35.541-1.244-.09-1.518L3.221 35.57a1.355 1.355 0 0 1-.695-1.764 1.307 1.307 0 0 1 1.728-.71l6.04 2.628c.24.104.515.087.742-.046l7.452-4.393a.856.856 0 0 0 .397-.917 6.485 6.485 0 0 1 0-2.736.857.857 0 0 0-.397-.918l-7.452-4.392a.817.817 0 0 0-.742-.046l-6.04 2.628a1.306 1.306 0 0 1-1.728-.71 1.357 1.357 0 0 1 .695-1.765l3.068-1.335c.631-.274.683-1.168.09-1.517l-4.055-2.39a1.36 1.36 0 0 1-.482-1.838 1.302 1.302 0 0 1 1.8-.492l4.055 2.39c.595.351 1.324-.145 1.242-.837l-.402-3.38c-.088-.738.426-1.408 1.149-1.498.72-.09 1.378.434 1.466 1.173l.792 6.654a.85.85 0 0 0 .41.634l7.454 4.394c.314.185.709.141.977-.108a6.28 6.28 0 0 1 2.319-1.37.848.848 0 0 0 .579-.81v-8.784a.856.856 0 0 0-.332-.68L18.1 8.61a1.365 1.365 0 0 1-.26-1.883 1.298 1.298 0 0 1 1.843-.267l2.667 2.045c.548.42 1.332.02 1.332-.679v-4.78c0-.742.59-1.346 1.317-1.346.726 0 1.317.604 1.317 1.345v4.781c0 .7.785 1.1 1.332.68l2.667-2.046a1.301 1.301 0 0 1 1.844.267 1.365 1.365 0 0 1-.262 1.883l-5.248 4.027a.856.856 0 0 0-.333.679v2.625c0 .47.373.85.832.85.46 0 .833-.38.833-.85v-2.2l4.916-3.773c1.315-1.008 1.58-2.92.593-4.262a2.945 2.945 0 0 0-4.175-.605l-1.334 1.024v-3.08C27.982 1.366 26.644 0 25 0c-1.644 0-2.981 1.366-2.981 3.044v3.08L20.684 5.1a2.94 2.94 0 0 0-4.175.605c-.987 1.342-.722 3.254.593 4.262l4.916 3.772v7.765c-.671.28-1.309.657-1.883 1.113l-6.59-3.884-.74-6.232c-.2-1.673-1.687-2.86-3.32-2.655-1.636.202-2.8 1.718-2.6 3.388l.2 1.692-2.612-1.54C3.047 12.545 1.224 13.043.4 14.5c-.823 1.457-.336 3.317 1.092 4.158l2.612 1.54-1.535.668C1.056 21.524.35 23.316.994 24.86c.647 1.55 2.399 2.266 3.912 1.607l5.658-2.461 6.587 3.882a8.182 8.182 0 0 0 0 2.224l-6.587 3.882-5.658-2.46c-1.515-.66-3.265.058-3.912 1.607-.645 1.547.058 3.334 1.575 3.993l1.535.668-2.612 1.54C.068 40.18-.421 42.046.4 43.5c.819 1.447 2.642 1.958 4.073 1.114l2.613-1.54-.201 1.692a3.07 3.07 0 0 0 .612 2.244c1.635 2.131 4.988 1.174 5.307-1.51l.742-6.233 6.589-3.884a7.983 7.983 0 0 0 1.883 1.112v7.766l-4.916 3.772c-1.315 1.008-1.58 2.92-.593 4.262a2.94 2.94 0 0 0 4.175.605l1.334-1.024v3.08C22.018 56.634 23.356 58 25 58c1.644 0 2.981-1.366 2.981-3.044v-3.08l1.335 1.024a2.943 2.943 0 0 0 4.174-.605c.99-1.345.725-3.252-.592-4.262L27.98 44.26v-7.766a7.98 7.98 0 0 0 1.884-1.112l6.589 3.884.741 6.232c.32 2.696 3.68 3.631 5.307 1.511a3.07 3.07 0 0 0 .613-2.244l-.201-1.692 2.612 1.54c1.424.84 3.251.34 4.073-1.114.822-1.454.333-3.319-1.091-4.158z" fill="#CCD7D2"/><path d="M47.114 21.043l-1.535-.667 2.612-1.54c1.427-.841 1.915-2.701 1.091-4.158-.823-1.458-2.645-1.956-4.072-1.115l-2.613 1.54.201-1.691c.199-1.67-.964-3.187-2.6-3.39-1.636-.203-3.12.985-3.32 2.656l-.74 6.232-6.59 3.884a7.98 7.98 0 0 0-1.884-1.112v-6.778c0-.47-.372-.85-.832-.85-.46 0-.832.38-.832.85v7.372c0 .37.234.697.58.81a6.278 6.278 0 0 1 2.318 1.37.82.82 0 0 0 .977.108l7.455-4.394a.85.85 0 0 0 .41-.633l.79-6.655a1.322 1.322 0 0 1 1.467-1.172c.723.089 1.237.758 1.149 1.496l-.402 3.38a.856.856 0 0 0 .367.812.818.818 0 0 0 .875.027l4.056-2.39a1.301 1.301 0 0 1 1.799.492 1.36 1.36 0 0 1-.482 1.837l-4.055 2.39a.854.854 0 0 0-.415.787.85.85 0 0 0 .505.73l3.068 1.335c.668.29.98 1.082.695 1.765a1.307 1.307 0 0 1-1.728.71l-6.04-2.628a.817.817 0 0 0-.742.046l-7.138 4.307a.86.86 0 0 0-.304 1.16.823.823 0 0 0 1.137.312l6.777-4.095 5.658 2.461c1.513.658 3.264-.056 3.912-1.607.644-1.544-.062-3.336-1.575-3.994z" fill="#CCD7D2"/></symbol><symbol fill="none" viewBox="0 0 59 48" id="water" xmlns="http://www.w3.org/2000/svg"><path d="M8.658.623A1.294 1.294 0 0 0 7.562 0c-.48 0-.89.277-1.096.623-.89 1.663-5.412 10.044-5.412 13.16 0 3.602 2.945 6.58 6.508 6.58 3.562 0 6.508-2.978 6.508-6.58 0-3.116-4.522-11.497-5.412-13.16zM7.562 17.801C5.37 17.8 3.588 16 3.588 13.784c0-1.594 2.124-6.234 3.974-9.836 1.85 3.602 3.973 8.312 3.973 9.836 0 2.216-1.781 4.017-3.973 4.017zM30.854.693c-.411-.832-1.781-.832-2.193 0-.89 1.662-5.412 10.043-5.412 13.16 0 3.602 2.946 6.58 6.509 6.58 3.562 0 6.508-2.978 6.508-6.58 0-3.117-4.522-11.498-5.412-13.16zM29.758 17.8c-2.193 0-3.974-1.801-3.974-4.017 0-1.594 2.124-6.234 3.974-9.836 1.85 3.602 3.973 8.312 3.973 9.836 0 2.216-1.781 4.017-3.974 4.017zM53.05.623c-.412-.83-1.782-.83-2.193 0-.89 1.663-5.412 10.044-5.412 13.16 0 3.671 2.946 6.58 6.508 6.58s6.508-2.978 6.508-6.58c0-3.116-4.521-11.497-5.412-13.16zm-1.097 17.178c-2.192 0-3.973-1.801-3.973-4.017 0-1.524 2.123-6.234 3.973-9.836 1.85 3.602 3.973 8.242 3.973 9.835 0 2.217-1.78 4.018-3.973 4.018zM58.94 29.022c-.342-.762-1.027-1.109-1.712-.9-7.124 2.285-10.618 1.177-14.318 0-3.63-1.109-7.33-2.287-13.838 0-7.124 2.285-10.618 1.177-14.317 0-3.631-1.109-7.33-2.287-13.907 0-.685.207-1.027.969-.753 1.592.205.693.959 1.04 1.575.762 5.755-2.008 8.837-1.039 12.331.07 2.192.692 4.522 1.454 7.673 1.454 2.26 0 4.932-.416 8.22-1.455 5.755-2.008 8.838-1.039 12.331.07 2.193.692 4.522 1.454 7.673 1.454 2.26 0 4.932-.415 8.22-1.454.686-.208 1.028-.9.823-1.593zM58.94 36.987c-.342-.762-1.027-1.108-1.712-.9-7.124 2.285-10.618 1.177-14.318 0-3.63-1.109-7.33-2.286-13.838 0-7.124 2.285-10.618 1.177-14.317 0-3.631-1.109-7.33-2.286-13.907 0-.685.207-1.027.97-.753 1.593.205.692.959 1.039 1.575.762 5.755-2.01 8.837-1.04 12.331.069 2.192.692 4.522 1.454 7.673 1.454 2.26 0 4.932-.415 8.22-1.454 5.755-2.009 8.838-1.04 12.331.07 2.193.692 4.522 1.454 7.673 1.454 2.26 0 4.932-.416 8.22-1.455.686-.208 1.028-.9.823-1.593zM58.94 44.952c-.342-.761-1.027-1.108-1.712-.9-7.124 2.286-10.618 1.178-14.318 0-3.63-1.108-7.33-2.286-13.838 0-7.124 2.286-10.618 1.178-14.317 0-3.631-1.108-7.33-2.286-13.907 0-.685.208-1.027.97-.753 1.593.205.693.959 1.039 1.575.762 5.755-2.009 8.837-1.039 12.331.07 2.192.692 4.522 1.454 7.673 1.454 2.26 0 4.932-.416 8.22-1.455 5.755-2.008 8.838-1.039 12.331.07 2.193.692 4.522 1.454 7.673 1.454 2.26 0 4.932-.416 8.22-1.455.686-.207 1.028-.9.823-1.593z" fill="#CCD7D2"/></symbol></svg>